# xmcd
# Track frame offsets:
# 150
# 12654
# 30658
# 52211
# 74626
# 84147
# 102737
# 118819
# 138142
# 154497
#
# Disc length: 2321 seconds
# Revision: 0
# Processed by: cddbd v1.5.2PL0 Copyright (c) Steve Scherf et al.
# Submitted via: VisiTrax 2.11.2.271 - For more info visit www.synapsa.com
#
DISCID=91090f0a
DTITLE=Various Artist - Air Sampler Country volume 1 november 2001
DYEAR=2001
DGENRE=Country
TTITLE0=Peter Brandy - Kimberly Backroads
TTITLE1=Donna Fisk and Michael Cristian - Boobyalla
TTITLE2=Carus - Plains
TTITLE3=Lil'Fi - Cardigan
TTITLE4=Lil'Fi - Celebrate The Curves
TTITLE5=Ian Blakeney - The Coo-Ee March
TTITLE6=Gary Shearston - Riverina Drover
TTITLE7=Ian Blakeney - The First Day
TTITLE8=Cris Swayn - Dance Me Soft
TTITLE9=Mick Gallagher - A Christmas Wish For Timor
EXTD=
EXTT0=
EXTT1=
EXTT2=
EXTT3=
EXTT4=
EXTT5=
EXTT6=
EXTT7=
EXTT8=
EXTT9=
PLAYORDER=
